<mxfile host="app.diagrams.net" modified="2024-04-22T05:17:18.002Z" agent="Mozilla/5.0 (Windows NT 10.0; Win64; x64) AppleWebKit/537.36 (KHTML, like Gecko) Chrome/123.0.0.0 Safari/537.36" version="24.2.3" etag="_NnaLlMe1tDUh-dB0KfH" type="github">
  <diagram name="第 1 页" id="de6EjR54Bz5bZw2GV9y9">
    <mxGraphModel>
      <root>
        <mxCell id="0" />
        <mxCell id="1" parent="0" />
      </root>
    </mxGraphModel>
  </diagram>
</mxfile>
